
<svg width="53px" height="53px" viewBox="134 50 53 53" version="1.1" xmlns="http://www.w3.org/2000/svg" xmlns:xlink="http://www.w3.org/1999/xlink">
    <!-- Generator: Sketch 42 (36781) - http://www.bohemiancoding.com/sketch -->
    <desc>Created with Sketch.</desc>
    <defs>
        <rect id="path-1" x="0" y="0" width="41" height="41" rx="20.5"></rect>
        <filter x="-50%" y="-50%" width="200%" height="200%" filterUnits="objectBoundingBox" id="filter-3">
            <feOffset dx="0" dy="2" in="SourceAlpha" result="shadowOffsetOuter1"></feOffset>
            <feGaussianBlur stdDeviation="3" in="shadowOffsetOuter1" result="shadowBlurOuter1"></feGaussianBlur>
            <feColorMatrix values="0 0 0 0 0   0 0 0 0 0   0 0 0 0 0  0 0 0 0.199162138 0" type="matrix" in="shadowBlurOuter1"></feColorMatrix>
        </filter>
    </defs>
    <g id="logo" stroke="none" stroke-width="1" fill="none" fill-rule="evenodd" transform="translate(140.000000, 54.000000)">
        <g id="Icon">
            <mask id="mask-2" fill="white">
                <use xlink:href="#path-1"></use>
            </mask>
            <g id="Mask">
                <use fill="black" fill-opacity="1" filter="url(#filter-3)" xlink:href="#path-1"></use>
                <use fill="#000000" fill-rule="evenodd" xlink:href="#path-1"></use>
            </g>
            <g id="Group-2" mask="url(#mask-2)" fill="#FFFFFF">
                <g transform="translate(10.858462, 12.820000)">
                    <path d="M6.19039726,1.97495248 L6.19039726,1.69281641 C6.19039726,0.647253333 5.84187624,0.149366154 4.8958906,0.149366154 L4.8129094,0.149366154 C3.90011624,0.149366154 3.51840274,0.680445812 3.51840274,1.69281641 L3.51840274,2.05793368 C1.72600889,2.43964718 0.697042051,3.56819145 0.697042051,5.22781538 C0.697042051,7.51809641 2.77157197,8.08236855 4.13246359,8.36450462 C5.11164171,8.58025573 5.89166496,8.72962188 5.89166496,9.31049026 C5.89166496,9.82497368 5.46016274,10.0905135 4.51417709,10.0905135 C3.4188253,10.0905135 2.14091487,9.54283761 1.46046906,8.94537299 C1.3940841,8.86239179 0.464694701,9.55943385 0.464694701,10.4224383 C0.464694701,11.4845976 1.52685402,12.2646209 3.5018065,12.480372 L3.5018065,12.8122968 C3.5018065,13.8578598 3.85032752,14.355747 4.79631316,14.355747 L4.87929436,14.355747 C5.79208752,14.355747 6.17380103,13.8246674 6.17380103,12.8122968 L6.17380103,12.3973908 C8.08236855,12.0322735 9.11133538,10.9037292 9.11133538,9.1611241 C9.11133538,6.97042051 6.98701675,6.35635966 5.57633641,6.07422359 C4.53077333,5.84187624 3.75075009,5.70910632 3.75075009,5.14483419 C3.75075009,4.64694701 4.16565607,4.36481094 5.07844923,4.36481094 C6.02443487,4.36481094 7.08659419,4.8129094 7.81682872,5.47675897 C7.88321368,5.54314393 8.87898803,4.82950564 8.87898803,3.91671248 C8.87898803,2.90434188 7.96619487,2.19070359 6.19039726,1.97495248 Z" id="$"></path>
                    <rect class="flash" id="Rectangle-3" x="11.2854427" y="11.9492923" width="7.96619487" height="2.65539829" rx="1.32769915"></rect>
                </g>
            </g>
        </g>
    </g>
</svg>
