<?xml version="1.0" standalone="no"?>
<!DOCTYPE svg PUBLIC "-//W3C//DTD SVG 20010904//EN"
 "http://www.w3.org/TR/2001/REC-SVG-20010904/DTD/svg10.dtd">
<svg version="1.0" xmlns="http://www.w3.org/2000/svg"
 width="16.000000pt" height="16.000000pt" viewBox="0 0 16.000000 16.000000"
 preserveAspectRatio="xMidYMid meet">
<metadata>
Created by potrace 1.11, written by Peter Selinger 2001-2013
</metadata>
<g transform="translate(0.000000,16.000000) scale(0.002162,-0.002162)"
fill="#000000" stroke="none">
<path d="M0 3700 l0 -3700 3700 0 3700 0 0 3700 0 3700 -3700 0 -3700 0 0
-3700z m3137 1021 c52 -24 74 -63 87 -160 l11 -74 70 -14 c90 -17 210 -77 246
-123 41 -51 56 -118 41 -176 -14 -54 -60 -121 -103 -153 l-30 -22 -47 34
c-109 80 -217 117 -338 117 -125 0 -184 -31 -184 -97 0 -67 43 -88 300 -148
298 -70 440 -204 440 -416 0 -229 -138 -389 -381 -443 -26 -6 -27 -9 -31 -91
-5 -91 -17 -118 -72 -159 -40 -30 -182 -30 -223 0 -40 29 -61 79 -69 160 l-7
71 -86 17 c-306 59 -421 264 -246 436 l43 43 64 -42 c124 -81 292 -129 414
-118 105 10 144 40 144 111 0 61 -39 80 -295 140 -257 61 -386 172 -416 356
-12 79 2 183 36 257 47 104 157 191 295 234 l55 17 2 53 c6 115 31 166 98 195
44 19 133 17 182 -5z m1803 -1641 c102 -52 128 -191 53 -281 -55 -64 -49 -64
-473 -67 -439 -4 -469 -1 -529 56 -91 87 -69 236 43 292 39 19 60 20 454 20
394 0 415 -1 452 -20z"/>
</g>
</svg>
